<svg width="120" height="57" viewBox="0 0 120 57" fill="none" xmlns="http://www.w3.org/2000/svg">
<path d="M11.3755 44.4649C10.1469 43.3813 8.43152 42.8296 6.26869 42.8296H0.105983V45.119L1.32675 45.1782V54.1981C1.32675 54.2926 1.32675 54.4266 0.981322 54.4581L0 54.5409V56.7397H6.37467C8.26666 56.7397 9.8721 56.1762 11.1478 55.065C11.7955 54.5015 12.3136 53.7173 12.6865 52.7322C13.0555 51.7589 13.24 50.6122 13.24 49.3118C13.24 47.1918 12.612 45.5604 11.3755 44.4649ZM4.53371 45.3712H6.13523C8.74162 45.3712 10.0056 46.778 10.0056 49.6743C10.0056 51.1678 9.68369 52.3184 9.04779 53.0829C8.41582 53.8434 7.55618 54.2138 6.41392 54.2138H4.53371V45.3712Z" fill="white"/>
<path d="M21.1848 42.5894C19.4341 42.5894 17.8758 43.1292 16.5569 44.1971C15.8935 44.733 15.3518 45.4975 14.9475 46.4669C14.5471 47.4283 14.3469 48.5553 14.3469 49.8163C14.3469 52.1255 14.9279 53.9184 16.0741 55.1439C17.2242 56.3773 18.8296 56.9999 20.8394 56.9999C22.8452 56.9999 24.4663 56.3734 25.6557 55.1361C26.8411 53.9027 27.4417 52.0742 27.4417 49.702C27.4417 47.3259 26.8372 45.529 25.64 44.3547C24.4467 43.1844 22.9472 42.5894 21.1848 42.5894ZM24.1916 49.8754C24.1916 51.1128 23.96 52.1688 23.5007 53.0121L23.4968 53.016C23.0218 53.9302 22.2054 54.3755 21.0042 54.3755C18.7315 54.3755 17.6245 52.8505 17.6245 49.7139C17.6245 48.8942 17.7266 48.1495 17.9307 47.5032C18.127 46.8806 18.4881 46.3408 19.0062 45.8994C19.5205 45.462 20.1171 45.2492 20.8315 45.2492C21.5538 45.2492 22.1465 45.3871 22.5861 45.663C23.0297 45.9388 23.3555 46.3092 23.5714 46.79C23.9835 47.7239 24.1916 48.7602 24.1916 49.8754Z" fill="white"/>
<path d="M36.3953 45.119L37.8084 45.1782V51.3806L32.1717 42.8296H27.8617V45.119L29.0825 45.1782V54.1981C29.0825 54.3439 29.0628 54.4384 28.8038 54.4581L27.7596 54.5409V56.7397H33.6005V54.4503L32.2109 54.3912V48.0469L37.9732 56.7437H40.9368V45.4343C40.9368 45.1545 41.035 45.123 41.1724 45.1151L42.2204 45.0324V42.8335H36.3953V45.119Z" fill="white"/>
<path d="M51.0366 53.737C51.0366 53.9655 50.9934 54.0404 50.9974 54.0404C50.9934 54.0444 50.9346 54.0759 50.7383 54.0759H47.5941V50.9353H52.5361V48.2912H47.5941V45.4697H50.4596C50.6637 45.4697 50.7344 45.5012 50.7383 45.4973C50.7461 45.5131 50.7815 45.5879 50.7815 45.7928V46.9159L53.5645 46.7386V42.8335H43.1664V45.123L44.3872 45.1821V54.202C44.3872 54.2966 44.3872 54.4305 44.0417 54.4621L43.0604 54.5448V56.7436H53.8196V52.5982L51.0366 52.4208V53.737Z" fill="white"/>
<path d="M69.7837 51.4239C69.5678 50.9629 69.2931 50.6043 68.9673 50.356C69.4776 50.0802 69.9329 49.7098 70.3293 49.2487C70.8828 48.6064 71.1615 47.7868 71.1615 46.8095C71.1615 45.3988 70.6708 44.3625 69.6974 43.7359C68.7671 43.133 67.4325 42.8296 65.7289 42.8296H59.5897V45.119L60.8105 45.1782V54.1981C60.8105 54.2926 60.8105 54.4266 60.4651 54.4581L59.4838 54.5409V56.7397H65.407V54.4503L64.0175 54.3912V51.4988H65.6622C65.9526 51.4988 66.1685 51.55 66.3098 51.6525C66.459 51.7628 66.6042 51.9638 66.7416 52.2554L67.7504 54.2611C67.8015 54.3557 67.8015 54.3912 67.8054 54.3912C67.8054 54.3912 67.7583 54.4384 67.5777 54.4581L66.6867 54.5448V56.7397H72.5707V54.4463L71.24 54.403L69.7837 51.4239ZM67.9114 47.0933C67.9114 47.909 67.668 48.9926 65.5797 48.9926H64.0175V45.3712H65.2775C66.247 45.3712 66.9536 45.4855 67.3697 45.7141C67.7269 45.9111 67.9114 46.3761 67.9114 47.0933Z" fill="white"/>
<path d="M73.3637 45.119L74.5844 45.1782V54.0956C74.5844 54.3045 74.5373 54.3596 74.5373 54.3596C74.5138 54.3793 74.4353 54.4306 74.239 54.4581L73.2577 54.5409V56.7397H79.0318V54.4503L77.811 54.3912V45.4501C77.811 45.253 77.866 45.1388 78.1564 45.1112L79.1378 45.0284V42.8296H73.3637V45.119Z" fill="white"/>
<path d="M86.6036 51.4635L88.2719 51.5226V54.0366C87.8008 54.2731 87.1374 54.3952 86.3053 54.3952C84.0011 54.3952 82.8824 52.8427 82.8824 49.6508C82.8824 46.6363 84.1346 45.1704 86.7096 45.1704C88.209 45.1704 88.3935 45.399 88.4014 45.4068C88.4092 45.4187 88.4446 45.4857 88.4446 45.6906V47.5741L91.2237 47.3968V43.5154L91.0431 43.4366C89.7556 42.877 88.3504 42.5894 86.8705 42.5894C85.3789 42.5894 84.0247 42.9164 82.8393 43.5706C82.2151 43.9331 81.6617 44.3902 81.1906 44.934C80.7196 45.4817 80.331 46.1792 80.0444 47.0146C79.7579 47.8421 79.6127 48.7839 79.6127 49.8163C79.6127 52.1531 80.1975 53.9499 81.3516 55.1597C82.5095 56.3694 84.1346 56.9842 86.1757 56.9842C88.1933 56.9842 89.9087 56.5389 91.2786 55.6562L91.416 55.5656V51.7787C91.416 51.5659 91.4592 51.5068 91.4592 51.5068C91.471 51.495 91.5377 51.4438 91.7575 51.4162L92.5269 51.3531V49.174H86.5997V51.4635H86.6036Z" fill="white"/>
<path d="M101.504 45.1191L102.725 45.1782V48.2715H97.2687V45.4698C97.2687 45.2609 97.3158 45.2058 97.3158 45.2058C97.3354 45.19 97.4139 45.1348 97.6377 45.1073L98.619 45.0245V42.8257H92.8449V45.1151L94.0656 45.1742V54.1942C94.0656 54.2887 94.0656 54.4227 93.7202 54.4542L92.7389 54.537V56.7358H98.513V54.4464L97.2726 54.3872V50.9314H102.725V54.0917C102.725 54.3045 102.678 54.3557 102.678 54.3557C102.654 54.3754 102.576 54.4267 102.379 54.4542L101.398 54.537V56.7358H107.172V54.4464L105.951 54.3872V45.4461C105.951 45.2491 106.006 45.1348 106.297 45.1073L107.278 45.0245V42.8257H101.504V45.1191Z" fill="white"/>
<path d="M119.384 46.8135V42.8296H107.596V46.8135L110.379 46.9908V45.7298C110.379 45.4107 110.477 45.4106 110.571 45.4106H111.941V54.1941C111.941 54.2887 111.941 54.4227 111.604 54.4542L110.187 54.5291V56.7358H116.817V54.4424L115.129 54.3833V45.4106H116.283C116.487 45.4106 116.554 45.4382 116.561 45.4343C116.569 45.4501 116.605 45.5249 116.605 45.7298V46.9908L119.384 46.8135Z" fill="white"/>
<path d="M65.1519 39.035L59.8567 34.6964V20.8218L78.1525 38.2114L65.1519 39.035Z" fill="url(#paint0_linear)"/>
<path d="M82.0896 39.0352L68.5865 26.4569V12.5823L95.0901 38.2116L82.0896 39.0352Z" fill="url(#paint1_linear)"/>
<path d="M103.062 13.8786L80.4958 37.451C79.5262 38.4637 78.1838 39.039 76.7864 39.039H65.1558L103.062 0V13.8786Z" fill="url(#paint2_linear)"/>
<path d="M120 13.8786L97.4334 37.4509C96.4639 38.4637 95.1254 39.035 93.724 39.035H82.0934L120 0V13.8786Z" fill="url(#paint3_linear)"/>
<path d="M7.76036 39.035V32.4858L5.06761 37.447H4.27471L1.57018 32.4858V39.035H0.137451V29.9324H1.66831L4.67116 35.4964L7.67401 29.9324H9.20487V39.035H7.76036Z" fill="white"/>
<path d="M14.0055 39.1652C13.4874 39.1652 13.0124 39.0746 12.5885 38.8894C12.1646 38.7042 11.7995 38.4559 11.4973 38.1407C11.195 37.8254 10.9595 37.4589 10.7947 37.0373C10.6298 36.6196 10.5474 36.1743 10.5474 35.7054C10.5474 35.2365 10.6298 34.7873 10.7947 34.3656C10.9595 33.944 11.195 33.5696 11.4973 33.2504C11.7995 32.9313 12.1646 32.6791 12.5885 32.4939C13.0124 32.3086 13.4913 32.218 14.0173 32.218C14.5355 32.218 15.0065 32.3126 15.4265 32.5017C15.8465 32.6909 16.2076 32.9391 16.506 33.2504C16.8043 33.5617 17.0319 33.9243 17.189 34.342C17.346 34.7557 17.4245 35.1892 17.4245 35.6424C17.4245 35.7448 17.4205 35.8394 17.4127 35.93C17.4048 36.0206 17.397 36.0955 17.3891 36.1546H12.039C12.0625 36.4541 12.1332 36.7221 12.2509 36.9624C12.3648 37.2028 12.5139 37.4077 12.6984 37.585C12.8829 37.7584 13.091 37.8963 13.3225 37.987C13.5581 38.0816 13.8014 38.1288 14.0566 38.1288C14.245 38.1288 14.4295 38.1052 14.614 38.0579C14.7985 38.0106 14.9633 37.9436 15.1203 37.853C15.2734 37.7624 15.4108 37.656 15.5286 37.5259C15.6463 37.3998 15.7405 37.258 15.8112 37.1043L17.0123 37.4511C16.7807 37.9555 16.4 38.3692 15.8701 38.6884C15.3323 39.0036 14.7121 39.1652 14.0055 39.1652ZM16.0388 35.1774C16.0114 34.8936 15.9446 34.6336 15.8269 34.3932C15.713 34.1528 15.5639 33.9519 15.3872 33.7824C15.2067 33.6169 14.9986 33.4869 14.7631 33.3923C14.5237 33.2977 14.2725 33.2504 14.0095 33.2504C13.7465 33.2504 13.4953 33.2977 13.2637 33.3923C13.0281 33.4869 12.824 33.6169 12.6435 33.7824C12.4629 33.9479 12.3216 34.1528 12.2078 34.3932C12.0979 34.6336 12.0272 34.8936 12.0036 35.1774H16.0388Z" fill="white"/>
<path d="M21.2987 39.1651C20.8473 39.1651 20.4312 39.0744 20.0465 38.8892C19.6619 38.704 19.3321 38.4558 19.0495 38.1405C18.7669 37.8253 18.551 37.4549 18.3901 37.0332C18.233 36.6116 18.1545 36.1545 18.1545 35.6698C18.1545 35.2009 18.2291 34.7556 18.3783 34.3418C18.5274 33.9281 18.7355 33.5616 19.0024 33.2464C19.2693 32.9311 19.5873 32.6789 19.9484 32.4977C20.3095 32.3125 20.7099 32.2218 21.1417 32.2218C21.6795 32.2218 22.1505 32.3519 22.5587 32.6119C22.9669 32.872 23.2849 33.203 23.5165 33.605V29.6802H24.9217V37.3721C24.9217 37.5337 24.9492 37.648 25.0042 37.7189C25.0591 37.7859 25.1612 37.8253 25.3025 37.8332V39.039C25.1573 39.0626 25.0395 39.0823 24.9531 39.0902C24.8629 39.0981 24.7883 39.102 24.7294 39.102C24.4468 39.102 24.2191 39.0311 24.0386 38.8853C23.858 38.7395 23.7638 38.5503 23.7442 38.3218L23.7206 37.8213C23.4733 38.239 23.1357 38.5701 22.7118 38.8065C22.2918 39.0429 21.8168 39.1651 21.2987 39.1651ZM21.6441 37.9593C21.8482 37.9593 22.0524 37.9238 22.2565 37.8568C22.4606 37.7898 22.649 37.6952 22.8178 37.5731C22.9866 37.4549 23.1357 37.313 23.2574 37.1515C23.3791 36.9899 23.4694 36.8126 23.5204 36.6274V34.8699C23.4419 34.6571 23.3359 34.4601 23.1946 34.2788C23.0533 34.1015 22.8963 33.9438 22.7157 33.8177C22.5352 33.6877 22.3468 33.5931 22.1466 33.5222C21.9464 33.4552 21.7462 33.4198 21.5381 33.4198C21.2555 33.4198 21.0004 33.4828 20.7649 33.6128C20.5293 33.7429 20.3292 33.9123 20.1604 34.1251C19.9916 34.3379 19.8542 34.5822 19.7561 34.8541C19.6579 35.126 19.6108 35.4097 19.6108 35.7013C19.6108 36.0087 19.6658 36.3003 19.7718 36.5722C19.8777 36.8441 20.023 37.0845 20.2114 37.2894C20.3998 37.4943 20.6118 37.6558 20.8551 37.778C21.0985 37.9002 21.3615 37.9593 21.6441 37.9593Z" fill="white"/>
<path d="M26.7117 31.2288V29.6763H28.1169V31.2288H26.7117ZM26.7117 39.0351V32.3322H28.1169V39.0351H26.7117Z" fill="white"/>
<path d="M29.3691 35.6778C29.3691 35.2089 29.4516 34.7636 29.6125 34.3459C29.7734 33.9282 30.005 33.5578 30.3073 33.2426C30.6095 32.9273 30.9746 32.6751 31.3985 32.4939C31.8224 32.3086 32.3013 32.218 32.8273 32.218C33.5182 32.218 34.1109 32.3678 34.6094 32.6712C35.1079 32.9746 35.4808 33.3805 35.7281 33.8849L34.3621 34.3223C34.2012 34.0385 33.9814 33.8218 33.7105 33.6603C33.4397 33.5026 33.1374 33.4238 32.8038 33.4238C32.5211 33.4238 32.2621 33.479 32.0187 33.5893C31.7753 33.6997 31.5634 33.8573 31.3867 34.0583C31.2062 34.2592 31.0688 34.4957 30.9667 34.7715C30.8647 35.0434 30.8136 35.3468 30.8136 35.6818C30.8136 36.0049 30.8647 36.3083 30.9746 36.5841C31.0806 36.86 31.2258 37.1043 31.4103 37.3092C31.5948 37.5141 31.8067 37.6757 32.0501 37.79C32.2935 37.9042 32.5486 37.9633 32.8234 37.9633C32.9922 37.9633 33.1649 37.9397 33.3337 37.8924C33.5025 37.8451 33.6595 37.7781 33.8008 37.6954C33.9421 37.6087 34.0638 37.5102 34.1698 37.3998C34.2757 37.2895 34.3543 37.1673 34.4053 37.0412L35.7831 37.4511C35.5632 37.9555 35.1903 38.3692 34.6722 38.6884C34.1541 39.0076 33.5417 39.1691 32.8352 39.1691C32.317 39.1691 31.8421 39.0746 31.4181 38.8854C30.9942 38.6963 30.6292 38.4441 30.3269 38.121C30.0247 37.8018 29.7891 37.4314 29.6243 37.0137C29.4516 36.592 29.3691 36.1467 29.3691 35.6778Z" fill="white"/>
<path d="M38.7191 39.1652C38.3972 39.1652 38.095 39.1101 37.8202 39.0037C37.5454 38.8973 37.306 38.7515 37.1058 38.5623C36.9056 38.3732 36.7486 38.1525 36.6347 37.8964C36.5209 37.6402 36.462 37.3605 36.462 37.061C36.462 36.7457 36.5288 36.4581 36.6662 36.2019C36.8035 35.9458 36.9959 35.7251 37.2471 35.536C37.4983 35.3468 37.7966 35.201 38.1421 35.0986C38.4875 34.9961 38.8682 34.9449 39.2843 34.9449C39.5983 34.9449 39.9084 34.9725 40.2146 35.0277C40.5208 35.0828 40.7995 35.1577 41.0429 35.2523V34.7912C41.0429 34.2947 40.9015 33.9085 40.6228 33.6327C40.3441 33.3569 39.9359 33.215 39.4099 33.215C39.0527 33.215 38.6995 33.282 38.358 33.412C38.0125 33.546 37.6593 33.7352 37.2903 33.9834L36.8546 33.085C37.7142 32.5057 38.6092 32.2141 39.5355 32.2141C40.4541 32.2141 41.1685 32.4505 41.6827 32.9195C42.193 33.3884 42.4481 34.0662 42.4481 34.9449V37.3683C42.4481 37.6678 42.5698 37.8215 42.8171 37.8294V39.0352C42.6797 39.0588 42.5619 39.0785 42.4677 39.0864C42.3696 39.0943 42.2754 39.0982 42.1812 39.0982C41.9103 39.0982 41.6984 39.0313 41.5492 38.8933C41.4001 38.7554 41.3098 38.582 41.2744 38.3692L41.2352 37.9476C40.9369 38.3417 40.5679 38.6411 40.1322 38.85C39.6886 39.0588 39.2176 39.1652 38.7191 39.1652ZM39.0998 38.1249C39.4413 38.1249 39.7632 38.0619 40.0655 37.9397C40.3677 37.8176 40.6032 37.6442 40.7759 37.4196C40.9565 37.2659 41.0429 37.1043 41.0429 36.9309V36.0443C40.8034 35.9497 40.5522 35.8788 40.2813 35.8276C40.0105 35.7764 39.7514 35.7527 39.4963 35.7527C38.9939 35.7527 38.5817 35.8631 38.2637 36.0798C37.9458 36.2965 37.7849 36.5842 37.7849 36.9467C37.7849 37.2817 37.9065 37.5614 38.1538 37.786C38.4011 38.0107 38.7191 38.1249 39.0998 38.1249Z" fill="white"/>
<path d="M44.1439 31.2288V29.6763H45.5492V31.2288H44.1439ZM44.1439 39.0351V32.3322H45.5492V39.0351H44.1439Z" fill="white"/>
<path d="M49.9532 39.1651C49.5018 39.1651 49.0858 39.0744 48.7011 38.8892C48.3164 38.704 47.9867 38.4558 47.704 38.1405C47.4214 37.8253 47.2055 37.4549 47.0446 37.0332C46.8876 36.6116 46.8091 36.1545 46.8091 35.6698C46.8091 35.2009 46.8837 34.7556 47.0328 34.3418C47.182 33.9281 47.39 33.5616 47.6569 33.2464C47.9239 32.9311 48.2418 32.6789 48.6029 32.4977C48.9641 32.3125 49.3644 32.2218 49.7962 32.2218C50.334 32.2218 50.805 32.3519 51.2133 32.6119C51.6215 32.872 51.9394 33.203 52.171 33.605V29.6802H53.5763V37.3721C53.5763 37.5337 53.6038 37.648 53.6587 37.7189C53.7137 37.7859 53.8157 37.8253 53.957 37.8332V39.039C53.8118 39.0626 53.694 39.0823 53.6077 39.0902C53.5174 39.0981 53.4428 39.102 53.3839 39.102C53.1013 39.102 52.8737 39.0311 52.6931 38.8853C52.5125 38.7395 52.4183 38.5503 52.3987 38.3218L52.3751 37.8213C52.1278 38.239 51.7903 38.5701 51.3663 38.8065C50.9463 39.0429 50.4753 39.1651 49.9532 39.1651ZM50.2987 37.9593C50.5028 37.9593 50.7069 37.9238 50.911 37.8568C51.1151 37.7898 51.3035 37.6952 51.4723 37.5731C51.6411 37.4549 51.7903 37.313 51.912 37.1515C52.0336 36.9899 52.1239 36.8126 52.175 36.6274V34.8699C52.0964 34.6571 51.9905 34.4601 51.8492 34.2788C51.7078 34.1015 51.5508 33.9438 51.3703 33.8177C51.1897 33.6877 51.0013 33.5931 50.8011 33.5222C50.6009 33.4552 50.4007 33.4198 50.1927 33.4198C49.9101 33.4198 49.6549 33.4828 49.4194 33.6128C49.1839 33.7429 48.9837 33.9123 48.8149 34.1251C48.6461 34.3379 48.5087 34.5822 48.4106 34.8541C48.3125 35.126 48.2654 35.4097 48.2654 35.7013C48.2654 36.0087 48.3203 36.3003 48.4263 36.5722C48.5323 36.8441 48.6775 37.0845 48.8659 37.2894C49.0543 37.4943 49.2663 37.6558 49.5097 37.778C49.757 37.9002 50.02 37.9593 50.2987 37.9593Z" fill="white"/>
<defs>
<linearGradient id="paint0_linear" x1="61.1549" y1="26.973" x2="68.5819" y2="35.8741" gradientUnits="userSpaceOnUse">
<stop offset="0.2111" stop-color="#DE1D3E"/>
<stop offset="1" stop-color="#961A2E"/>
</linearGradient>
<linearGradient id="paint1_linear" x1="72.2677" y1="22.9864" x2="81.523" y2="31.9567" gradientUnits="userSpaceOnUse">
<stop stop-color="#4179A4"/>
<stop offset="0.9411" stop-color="#193B5A"/>
</linearGradient>
<linearGradient id="paint2_linear" x1="71.8008" y1="25.8265" x2="101.393" y2="15.8384" gradientUnits="userSpaceOnUse">
<stop offset="0.2111" stop-color="#DE1D3E"/>
<stop offset="1" stop-color="#961A2E"/>
</linearGradient>
<linearGradient id="paint3_linear" x1="91.0679" y1="32.5555" x2="144.902" y2="-9.20958" gradientUnits="userSpaceOnUse">
<stop stop-color="#4179A4"/>
<stop offset="0.645" stop-color="#193B5A"/>
</linearGradient>
</defs>
</svg>
